Coordinates
version=1
nRows=8
nColumns=36
inDegrees=yes

Units are S.I. units (second, meters, Newtons, ...)
If the header above contains a line with 'inDegrees', this indicates whether rotational values are in degrees (yes) or radians (no).

endheader
time	pelvis_tilt	pelvis_list	pelvis_rotation	pelvis_tx	pelvis_ty	pelvis_tz	hip_flexion_r	hip_adduction_r	hip_rotation_r	knee_angle_r	knee_angle_r_beta	ankle_angle_r	subtalar_angle_r	mtp_angle_r	hip_flexion_l	hip_adduction_l	hip_rotation_l	knee_angle_l	knee_angle_l_beta	ankle_angle_l	subtalar_angle_l	mtp_angle_l	lumbar_extension	lumbar_bending	lumbar_rotation	arm_flex_r	arm_add_r	arm_rot_r	elbow_flex_r	pro_sup_r	arm_flex_l	arm_add_l	arm_rot_l	elbow_flex_l	pro_sup_l
      1.43000000	     -9.59050360	      1.62351059	     -6.47581475	     -0.33417717	      0.70480439	     -0.61164151	     71.37233033	     -8.17979073	      9.00432931	     86.80431571	      1.51502111	     29.72242796	     -1.05212055	     -7.40500505	     65.62563493	     -9.57248407	      5.80454278	     89.81601978	      1.56758527	     31.60423176	    -10.56625397	     -7.40500505	    -30.45741175	      5.26930298	      9.91155051	     47.82552792	     -1.72139993	     -6.45749724	     77.65928886	    100.89177216	     24.91850436	    -14.26578324	      3.24167933	     91.46973779	    110.55445797
      1.44000000	    -10.44902148	      1.21484903	     -6.07666964	     -0.33303963	      0.69745955	     -0.61244817	     72.92481228	     -8.30421346	      8.63788473	     88.09754171	      1.53759217	     29.82238249	     -0.89066230	     -7.40614254	     67.44659817	     -9.52947886	      6.64258607	     91.14842078	      1.59084005	     32.04652137	    -10.36057864	     -7.40614254	    -31.59063082	      5.59044773	     10.06454073	     51.41250458	     -1.66370003	     -5.30946823	     77.50403215	    101.05745658	     28.01462220	    -14.61284049	      4.66548840	     90.79103413	    110.50007298
      1.45000000	    -11.17257859	      0.77551892	     -5.68759458	     -0.33160468	      0.69122737	     -0.61320064	     74.20990483	     -8.47867974	      8.24958094	     89.28592623	      1.55833339	     29.92170242	     -0.65294627	     -7.40743658	     69.08573823	     -9.59642558	      7.37725780	     92.39527320	      1.61260173	     32.36056735	     -9.82594367	     -7.40743658	    -32.70367984	      5.90867864	     10.31979264	     54.82296052	     -1.86726068	     -4.02106904	     77.20557820	    101.24208207	     31.21069473	    -14.51168897	      5.75166405	     89.60512937	    110.34213902
      1.46000000	    -11.87814379	      0.36669997	     -5.36206113	     -0.33001587	      0.68576369	     -0.61355347	     75.38082911	     -8.63855893	      7.83478791	     90.32213062	      1.57641857	     29.96245693	     -0.41524302	     -7.40863571	     70.66732343	     -9.75451253	      8.02067734	     93.55660446	      1.63287078	     32.45084205	     -9.16697588	     -7.40863571	    -33.69247753	      6.10908599	     10.58406475	     58.00173118	     -1.99981141	     -2.91409312	     76.91822068	    101.39765209	     34.26872440	    -14.10807794	      6.36267371	     88.35283433	    110.16398836
      1.47000000	    -12.58767732	      0.05955353	     -5.14868789	     -0.32835761	      0.68080256	     -0.61314439	     76.50644813	     -8.63164188	      7.55171375	     91.28754331	      1.59326820	     30.00320882	     -0.36275366	     -7.40932255	     72.24667592	    -10.12507343	      8.37656872	     94.66266800	      1.65217524	     32.30618185	     -8.70631707	     -7.40932255	    -34.57669700	      6.03635040	     10.75782748	     60.85634576	     -1.86473537	     -2.25312384	     76.86406266	    101.47503028	     36.92829882	    -13.73674996	      6.53170476	     87.71097684	    110.06620317
      1.48000000	    -13.50459178	     -0.39966378	     -4.89012312	     -0.32671538	      0.67597122	     -0.61251342	     77.65388953	     -8.53286755	      7.06816195	     92.04366431	      1.60646500	     30.09594535	     -0.39725062	     -7.41029793	     74.16686537	    -10.59003143	      8.91695033	     95.73195525	      1.67083782	     31.78581445	     -7.84613516	     -7.41029793	    -35.05081107	      6.12752017	     11.02294725	     63.42734167	     -1.96021571	     -1.44927742	     76.66180448	    101.53568227	     39.39157073	    -13.41627822	      6.95895955	     86.98821432	    109.98389666
      1.49000000	    -14.58127277	     -0.79965846	     -4.48966715	     -0.32475337	      0.67104704	     -0.61215131	     78.91523939	     -8.66500323	      6.57344037	     92.78223052	      1.61935541	     30.30583396	     -0.56352849	     -7.41154300	     76.29839359	    -10.89172507	      9.42393314	     96.78229468	      1.68916970	     31.25032726	     -7.04483722	     -7.41154300	    -35.18788046	      6.23526254	     11.10715476	     65.57237396	     -2.05882436	     -0.86426668	     76.99040421	    101.59127176	     41.46861827	    -13.04639469	      7.11814597	     86.74449514	    109.95736616
      1.50000000	    -15.63477729	     -1.07477875	     -3.98273368	     -0.32247372	      0.66632092	     -0.61213189	     80.14758970	     -9.14173631	      6.10485949	     93.52786623	      1.63236921	     30.57180064	     -0.61337991	     -7.41228679	     78.33497085	    -11.00795985	      9.72894554	     97.75351735	      1.70612073	     30.65359966	     -6.46707457	     -7.41228679	    -35.18436259	      6.26595986	     10.94773886	     67.44919488	     -2.13622354	     -0.41039153	     77.47656551	    101.63562463	     43.28501862	    -12.63989241	      7.04450233	     86.95750364	    109.99042555
